<mxfile host="app.diagrams.net" agent="Mozilla/5.0 (Windows NT 10.0; Win64; x64) AppleWebKit/537.36 (KHTML, like Gecko) Chrome/131.0.0.0 Safari/537.36" version="25.0.3">
  <diagram name="1 oldal" id="2qY-5DJ4luqoymaEtn0h">
    <mxGraphModel dx="4575" dy="2884" grid="1" gridSize="10" guides="1" tooltips="1" connect="1" arrows="1" fold="1" page="1" pageScale="1" pageWidth="827" pageHeight="1169" math="0" shadow="0">
      <root>
        <mxCell id="0" />
        <mxCell id="1" parent="0" />
        <mxCell id="ROAPfHrgWfZoaQifjzsi-6" value="" style="ellipse;whiteSpace=wrap;html=1;" parent="1" vertex="1">
          <mxGeometry x="350" y="210" width="120" height="80" as="geometry" />
        </mxCell>
        <mxCell id="ROAPfHrgWfZoaQifjzsi-7" value="Kurzus" style="ellipse;whiteSpace=wrap;html=1;" parent="1" vertex="1">
          <mxGeometry x="360" y="217.5" width="100" height="65" as="geometry" />
        </mxCell>
        <mxCell id="ROAPfHrgWfZoaQifjzsi-8" value="&lt;u&gt;kurzus_id&lt;/u&gt;" style="rhombus;whiteSpace=wrap;html=1;" parent="1" vertex="1">
          <mxGeometry x="130" y="260" width="80" height="80" as="geometry" />
        </mxCell>
        <mxCell id="ROAPfHrgWfZoaQifjzsi-9" value="" style="endArrow=none;html=1;rounded=0;exitX=1;exitY=0.5;exitDx=0;exitDy=0;entryX=0;entryY=0.5;entryDx=0;entryDy=0;" parent="1" source="ROAPfHrgWfZoaQifjzsi-8" target="ROAPfHrgWfZoaQifjzsi-6" edge="1">
          <mxGeometry width="50" height="50" relative="1" as="geometry">
            <mxPoint x="380" y="430" as="sourcePoint" />
            <mxPoint x="430" y="380" as="targetPoint" />
          </mxGeometry>
        </mxCell>
        <mxCell id="ROAPfHrgWfZoaQifjzsi-10" value="letszam" style="ellipse;whiteSpace=wrap;html=1;" parent="1" vertex="1">
          <mxGeometry x="540" y="360" width="120" height="80" as="geometry" />
        </mxCell>
        <mxCell id="ROAPfHrgWfZoaQifjzsi-11" value="tipus" style="ellipse;whiteSpace=wrap;html=1;" parent="1" vertex="1">
          <mxGeometry x="350" y="360" width="120" height="80" as="geometry" />
        </mxCell>
        <mxCell id="ROAPfHrgWfZoaQifjzsi-12" value="idopont" style="ellipse;whiteSpace=wrap;html=1;" parent="1" vertex="1">
          <mxGeometry x="170" y="362.5" width="120" height="80" as="geometry" />
        </mxCell>
        <mxCell id="ROAPfHrgWfZoaQifjzsi-13" value="" style="rounded=0;whiteSpace=wrap;html=1;direction=south;" parent="1" vertex="1">
          <mxGeometry x="200" y="467" width="60" height="120" as="geometry" />
        </mxCell>
        <mxCell id="ROAPfHrgWfZoaQifjzsi-14" value="" style="rounded=0;whiteSpace=wrap;html=1;direction=south;" parent="1" vertex="1">
          <mxGeometry x="570" y="460" width="60" height="120" as="geometry" />
        </mxCell>
        <mxCell id="ROAPfHrgWfZoaQifjzsi-16" value="" style="endArrow=none;html=1;rounded=0;exitX=0;exitY=0.5;exitDx=0;exitDy=0;entryX=0.5;entryY=1;entryDx=0;entryDy=0;" parent="1" source="ROAPfHrgWfZoaQifjzsi-13" target="ROAPfHrgWfZoaQifjzsi-12" edge="1">
          <mxGeometry width="50" height="50" relative="1" as="geometry">
            <mxPoint x="460" y="432.5" as="sourcePoint" />
            <mxPoint x="510" y="382.5" as="targetPoint" />
          </mxGeometry>
        </mxCell>
        <mxCell id="ROAPfHrgWfZoaQifjzsi-18" value="" style="endArrow=none;html=1;rounded=0;exitX=0;exitY=0.5;exitDx=0;exitDy=0;entryX=0.5;entryY=1;entryDx=0;entryDy=0;" parent="1" source="ROAPfHrgWfZoaQifjzsi-14" target="ROAPfHrgWfZoaQifjzsi-10" edge="1">
          <mxGeometry width="50" height="50" relative="1" as="geometry">
            <mxPoint x="310" y="430" as="sourcePoint" />
            <mxPoint x="360" y="380" as="targetPoint" />
          </mxGeometry>
        </mxCell>
        <mxCell id="ROAPfHrgWfZoaQifjzsi-21" value="eloadas" style="ellipse;whiteSpace=wrap;html=1;" parent="1" vertex="1">
          <mxGeometry x="280" y="610" width="100" height="59.25" as="geometry" />
        </mxCell>
        <mxCell id="ROAPfHrgWfZoaQifjzsi-23" value="" style="rounded=0;whiteSpace=wrap;html=1;direction=south;" parent="1" vertex="1">
          <mxGeometry x="464" y="699.25" width="60" height="120" as="geometry" />
        </mxCell>
        <mxCell id="ROAPfHrgWfZoaQifjzsi-25" value="" style="rounded=0;whiteSpace=wrap;html=1;direction=south;" parent="1" vertex="1">
          <mxGeometry x="300" y="699.25" width="60" height="120" as="geometry" />
        </mxCell>
        <mxCell id="ROAPfHrgWfZoaQifjzsi-26" value="" style="endArrow=none;html=1;rounded=0;exitX=0;exitY=0.5;exitDx=0;exitDy=0;entryX=0.5;entryY=1;entryDx=0;entryDy=0;" parent="1" source="ROAPfHrgWfZoaQifjzsi-25" target="ROAPfHrgWfZoaQifjzsi-21" edge="1">
          <mxGeometry width="50" height="50" relative="1" as="geometry">
            <mxPoint x="490" y="629.25" as="sourcePoint" />
            <mxPoint x="540" y="579.25" as="targetPoint" />
          </mxGeometry>
        </mxCell>
        <mxCell id="ROAPfHrgWfZoaQifjzsi-28" value="" style="endArrow=none;html=1;rounded=0;exitX=0;exitY=0.5;exitDx=0;exitDy=0;entryX=0.5;entryY=1;entryDx=0;entryDy=0;" parent="1" source="ROAPfHrgWfZoaQifjzsi-23" target="oDda9OyDIdGuTbppPwnk-29" edge="1">
          <mxGeometry width="50" height="50" relative="1" as="geometry">
            <mxPoint x="304" y="589.25" as="sourcePoint" />
            <mxPoint x="494" y="668.1300000000001" as="targetPoint" />
          </mxGeometry>
        </mxCell>
        <mxCell id="ROAPfHrgWfZoaQifjzsi-29" value="" style="endArrow=none;html=1;rounded=0;exitX=0.5;exitY=0;exitDx=0;exitDy=0;entryX=0.5;entryY=1;entryDx=0;entryDy=0;" parent="1" source="ROAPfHrgWfZoaQifjzsi-21" target="ROAPfHrgWfZoaQifjzsi-11" edge="1">
          <mxGeometry width="50" height="50" relative="1" as="geometry">
            <mxPoint x="410" y="550" as="sourcePoint" />
            <mxPoint x="460" y="500" as="targetPoint" />
          </mxGeometry>
        </mxCell>
        <mxCell id="ROAPfHrgWfZoaQifjzsi-31" value="" style="endArrow=none;html=1;rounded=0;entryX=0.5;entryY=1;entryDx=0;entryDy=0;exitX=0.5;exitY=0;exitDx=0;exitDy=0;" parent="1" source="oDda9OyDIdGuTbppPwnk-29" target="ROAPfHrgWfZoaQifjzsi-11" edge="1">
          <mxGeometry width="50" height="50" relative="1" as="geometry">
            <mxPoint x="494" y="611.1300000000001" as="sourcePoint" />
            <mxPoint x="460" y="500" as="targetPoint" />
          </mxGeometry>
        </mxCell>
        <mxCell id="ROAPfHrgWfZoaQifjzsi-32" value="" style="endArrow=none;html=1;rounded=0;entryX=0.5;entryY=1;entryDx=0;entryDy=0;exitX=0.5;exitY=0;exitDx=0;exitDy=0;" parent="1" source="ROAPfHrgWfZoaQifjzsi-11" target="ROAPfHrgWfZoaQifjzsi-6" edge="1">
          <mxGeometry width="50" height="50" relative="1" as="geometry">
            <mxPoint x="360" y="510" as="sourcePoint" />
            <mxPoint x="410" y="460" as="targetPoint" />
          </mxGeometry>
        </mxCell>
        <mxCell id="ROAPfHrgWfZoaQifjzsi-33" value="" style="endArrow=none;html=1;rounded=0;exitX=0.5;exitY=0;exitDx=0;exitDy=0;entryX=0.5;entryY=1;entryDx=0;entryDy=0;" parent="1" source="ROAPfHrgWfZoaQifjzsi-12" target="ROAPfHrgWfZoaQifjzsi-6" edge="1">
          <mxGeometry width="50" height="50" relative="1" as="geometry">
            <mxPoint x="390" y="510" as="sourcePoint" />
            <mxPoint x="440" y="460" as="targetPoint" />
          </mxGeometry>
        </mxCell>
        <mxCell id="ROAPfHrgWfZoaQifjzsi-34" value="" style="endArrow=none;html=1;rounded=0;entryX=0.5;entryY=1;entryDx=0;entryDy=0;exitX=0.5;exitY=0;exitDx=0;exitDy=0;" parent="1" source="ROAPfHrgWfZoaQifjzsi-10" target="ROAPfHrgWfZoaQifjzsi-6" edge="1">
          <mxGeometry width="50" height="50" relative="1" as="geometry">
            <mxPoint x="390" y="510" as="sourcePoint" />
            <mxPoint x="440" y="460" as="targetPoint" />
          </mxGeometry>
        </mxCell>
        <mxCell id="ROAPfHrgWfZoaQifjzsi-45" value="" style="ellipse;whiteSpace=wrap;html=1;" parent="1" vertex="1">
          <mxGeometry x="3158" y="217.5" width="120" height="80" as="geometry" />
        </mxCell>
        <mxCell id="ROAPfHrgWfZoaQifjzsi-48" value="" style="endArrow=none;html=1;rounded=0;entryX=0.5;entryY=0;entryDx=0;entryDy=0;exitX=0;exitY=0.5;exitDx=0;exitDy=0;" parent="1" source="ROAPfHrgWfZoaQifjzsi-45" target="ROAPfHrgWfZoaQifjzsi-51" edge="1">
          <mxGeometry width="50" height="50" relative="1" as="geometry">
            <mxPoint x="2990" y="565" as="sourcePoint" />
            <mxPoint x="3140" y="480" as="targetPoint" />
          </mxGeometry>
        </mxCell>
        <mxCell id="ROAPfHrgWfZoaQifjzsi-49" value="" style="endArrow=none;html=1;rounded=0;entryX=1;entryY=0.5;entryDx=0;entryDy=0;exitX=0.5;exitY=0;exitDx=0;exitDy=0;" parent="1" source="ROAPfHrgWfZoaQifjzsi-50" target="ROAPfHrgWfZoaQifjzsi-45" edge="1">
          <mxGeometry width="50" height="50" relative="1" as="geometry">
            <mxPoint x="3290" y="480" as="sourcePoint" />
            <mxPoint x="2803" y="375" as="targetPoint" />
          </mxGeometry>
        </mxCell>
        <mxCell id="ROAPfHrgWfZoaQifjzsi-50" value="k_v_e" style="rhombus;whiteSpace=wrap;html=1;" parent="1" vertex="1">
          <mxGeometry x="3338" y="257.5" width="80" height="80" as="geometry" />
        </mxCell>
        <mxCell id="ROAPfHrgWfZoaQifjzsi-51" value="k_v_d" style="rhombus;whiteSpace=wrap;html=1;" parent="1" vertex="1">
          <mxGeometry x="3040" y="257.5" width="80" height="80" as="geometry" />
        </mxCell>
        <mxCell id="ROAPfHrgWfZoaQifjzsi-52" value="" style="endArrow=none;dashed=1;html=1;rounded=0;entryX=1;entryY=1;entryDx=0;entryDy=0;exitX=0;exitY=1;exitDx=0;exitDy=0;" parent="1" source="ROAPfHrgWfZoaQifjzsi-51" target="ROAPfHrgWfZoaQifjzsi-51" edge="1">
          <mxGeometry width="50" height="50" relative="1" as="geometry">
            <mxPoint x="3120" y="540" as="sourcePoint" />
            <mxPoint x="3160" y="540" as="targetPoint" />
          </mxGeometry>
        </mxCell>
        <mxCell id="ROAPfHrgWfZoaQifjzsi-53" value="" style="endArrow=none;dashed=1;html=1;rounded=0;entryX=1;entryY=1;entryDx=0;entryDy=0;exitX=0;exitY=1;exitDx=0;exitDy=0;" parent="1" source="ROAPfHrgWfZoaQifjzsi-50" target="ROAPfHrgWfZoaQifjzsi-50" edge="1">
          <mxGeometry width="50" height="50" relative="1" as="geometry">
            <mxPoint x="3358" y="454.5" as="sourcePoint" />
            <mxPoint x="3398" y="454.5" as="targetPoint" />
          </mxGeometry>
        </mxCell>
        <mxCell id="ROAPfHrgWfZoaQifjzsi-68" value="" style="ellipse;whiteSpace=wrap;html=1;" parent="1" vertex="1">
          <mxGeometry x="870" y="217.5" width="120" height="80" as="geometry" />
        </mxCell>
        <mxCell id="ROAPfHrgWfZoaQifjzsi-69" value="kapacitas" style="ellipse;whiteSpace=wrap;html=1;" parent="1" vertex="1">
          <mxGeometry x="870" y="360" width="120" height="80" as="geometry" />
        </mxCell>
        <mxCell id="ROAPfHrgWfZoaQifjzsi-70" value="nev" style="ellipse;whiteSpace=wrap;html=1;" parent="1" vertex="1">
          <mxGeometry x="720" y="360" width="120" height="80" as="geometry" />
        </mxCell>
        <mxCell id="ROAPfHrgWfZoaQifjzsi-71" value="" style="endArrow=none;html=1;rounded=0;exitX=0.5;exitY=0;exitDx=0;exitDy=0;entryX=0.5;entryY=1;entryDx=0;entryDy=0;" parent="1" source="ROAPfHrgWfZoaQifjzsi-70" target="ROAPfHrgWfZoaQifjzsi-68" edge="1">
          <mxGeometry width="50" height="50" relative="1" as="geometry">
            <mxPoint x="1340" y="477.5" as="sourcePoint" />
            <mxPoint x="1390" y="427.5" as="targetPoint" />
          </mxGeometry>
        </mxCell>
        <mxCell id="ROAPfHrgWfZoaQifjzsi-72" value="" style="endArrow=none;html=1;rounded=0;entryX=0.5;entryY=1;entryDx=0;entryDy=0;exitX=0.5;exitY=0;exitDx=0;exitDy=0;" parent="1" source="ROAPfHrgWfZoaQifjzsi-69" target="ROAPfHrgWfZoaQifjzsi-68" edge="1">
          <mxGeometry width="50" height="50" relative="1" as="geometry">
            <mxPoint x="1220" y="567.5" as="sourcePoint" />
            <mxPoint x="860" y="387.5000000000001" as="targetPoint" />
          </mxGeometry>
        </mxCell>
        <mxCell id="ROAPfHrgWfZoaQifjzsi-73" value="&lt;u&gt;terem_id&lt;/u&gt;" style="rhombus;whiteSpace=wrap;html=1;" parent="1" vertex="1">
          <mxGeometry x="740" y="257.5" width="80" height="80" as="geometry" />
        </mxCell>
        <mxCell id="ROAPfHrgWfZoaQifjzsi-74" value="" style="endArrow=none;html=1;rounded=0;exitX=0.5;exitY=0;exitDx=0;exitDy=0;entryX=0;entryY=0.5;entryDx=0;entryDy=0;" parent="1" source="ROAPfHrgWfZoaQifjzsi-73" target="ROAPfHrgWfZoaQifjzsi-68" edge="1">
          <mxGeometry width="50" height="50" relative="1" as="geometry">
            <mxPoint x="897" y="552.5" as="sourcePoint" />
            <mxPoint x="947" y="502.5" as="targetPoint" />
          </mxGeometry>
        </mxCell>
        <mxCell id="ROAPfHrgWfZoaQifjzsi-76" value="" style="endArrow=none;html=1;rounded=0;exitX=0.5;exitY=0;exitDx=0;exitDy=0;entryX=0.5;entryY=1;entryDx=0;entryDy=0;" parent="1" source="ROAPfHrgWfZoaQifjzsi-87" target="ROAPfHrgWfZoaQifjzsi-68" edge="1">
          <mxGeometry width="50" height="50" relative="1" as="geometry">
            <mxPoint x="1080" y="402.5" as="sourcePoint" />
            <mxPoint x="1390" y="427.5" as="targetPoint" />
          </mxGeometry>
        </mxCell>
        <mxCell id="ROAPfHrgWfZoaQifjzsi-77" value="K-Ter" style="rhombus;whiteSpace=wrap;html=1;" parent="1" vertex="1">
          <mxGeometry x="1161" y="257.5" width="80" height="80" as="geometry" />
        </mxCell>
        <mxCell id="ROAPfHrgWfZoaQifjzsi-78" value="" style="endArrow=none;dashed=1;html=1;rounded=0;exitX=0;exitY=1;exitDx=0;exitDy=0;entryX=1;entryY=1;entryDx=0;entryDy=0;" parent="1" source="ROAPfHrgWfZoaQifjzsi-77" target="ROAPfHrgWfZoaQifjzsi-77" edge="1">
          <mxGeometry width="50" height="50" relative="1" as="geometry">
            <mxPoint x="1557" y="350" as="sourcePoint" />
            <mxPoint x="1607" y="300" as="targetPoint" />
          </mxGeometry>
        </mxCell>
        <mxCell id="ROAPfHrgWfZoaQifjzsi-79" value="Terem" style="ellipse;whiteSpace=wrap;html=1;" parent="1" vertex="1">
          <mxGeometry x="885" y="227.5" width="90" height="60" as="geometry" />
        </mxCell>
        <mxCell id="ROAPfHrgWfZoaQifjzsi-80" value="" style="rounded=0;whiteSpace=wrap;html=1;direction=south;" parent="1" vertex="1">
          <mxGeometry x="750" y="470" width="60" height="120" as="geometry" />
        </mxCell>
        <mxCell id="ROAPfHrgWfZoaQifjzsi-81" value="" style="rounded=0;whiteSpace=wrap;html=1;direction=south;" parent="1" vertex="1">
          <mxGeometry x="900" y="470" width="60" height="120" as="geometry" />
        </mxCell>
        <mxCell id="ROAPfHrgWfZoaQifjzsi-82" value="" style="rounded=0;whiteSpace=wrap;html=1;direction=south;" parent="1" vertex="1">
          <mxGeometry x="1050" y="470" width="60" height="120" as="geometry" />
        </mxCell>
        <mxCell id="ROAPfHrgWfZoaQifjzsi-83" value="" style="endArrow=none;html=1;rounded=0;exitX=0;exitY=0.5;exitDx=0;exitDy=0;entryX=0.5;entryY=1;entryDx=0;entryDy=0;" parent="1" source="ROAPfHrgWfZoaQifjzsi-81" target="ROAPfHrgWfZoaQifjzsi-69" edge="1">
          <mxGeometry width="50" height="50" relative="1" as="geometry">
            <mxPoint x="1410" y="427.5" as="sourcePoint" />
            <mxPoint x="1460" y="377.5" as="targetPoint" />
          </mxGeometry>
        </mxCell>
        <mxCell id="ROAPfHrgWfZoaQifjzsi-84" value="" style="endArrow=none;html=1;rounded=0;exitX=0;exitY=0.5;exitDx=0;exitDy=0;entryX=0.5;entryY=1;entryDx=0;entryDy=0;" parent="1" source="ROAPfHrgWfZoaQifjzsi-82" target="ROAPfHrgWfZoaQifjzsi-87" edge="1">
          <mxGeometry width="50" height="50" relative="1" as="geometry">
            <mxPoint x="1410" y="427.5" as="sourcePoint" />
            <mxPoint x="1080" y="482.5" as="targetPoint" />
          </mxGeometry>
        </mxCell>
        <mxCell id="ROAPfHrgWfZoaQifjzsi-85" value="" style="endArrow=none;html=1;rounded=0;exitX=0;exitY=0.5;exitDx=0;exitDy=0;entryX=0.5;entryY=1;entryDx=0;entryDy=0;" parent="1" source="ROAPfHrgWfZoaQifjzsi-80" target="ROAPfHrgWfZoaQifjzsi-70" edge="1">
          <mxGeometry width="50" height="50" relative="1" as="geometry">
            <mxPoint x="1410" y="427.5" as="sourcePoint" />
            <mxPoint x="1460" y="377.5" as="targetPoint" />
          </mxGeometry>
        </mxCell>
        <mxCell id="ROAPfHrgWfZoaQifjzsi-87" value="" style="ellipse;whiteSpace=wrap;html=1;" parent="1" vertex="1">
          <mxGeometry x="1020" y="360" width="120" height="80" as="geometry" />
        </mxCell>
        <mxCell id="ROAPfHrgWfZoaQifjzsi-88" value="felszereles" style="ellipse;whiteSpace=wrap;html=1;" parent="1" vertex="1">
          <mxGeometry x="1033.5" y="367.5" width="93" height="65" as="geometry" />
        </mxCell>
        <mxCell id="ROAPfHrgWfZoaQifjzsi-89" value="" style="endArrow=none;html=1;rounded=0;entryX=0.5;entryY=0;entryDx=0;entryDy=0;exitX=1;exitY=0.5;exitDx=0;exitDy=0;" parent="1" source="ROAPfHrgWfZoaQifjzsi-68" target="ROAPfHrgWfZoaQifjzsi-77" edge="1">
          <mxGeometry width="50" height="50" relative="1" as="geometry">
            <mxPoint x="433" y="427.5" as="sourcePoint" />
            <mxPoint x="483" y="377.5" as="targetPoint" />
          </mxGeometry>
        </mxCell>
        <mxCell id="ROAPfHrgWfZoaQifjzsi-90" value="" style="endArrow=none;dashed=1;html=1;rounded=0;entryX=0.5;entryY=1;entryDx=0;entryDy=0;" parent="1" target="ROAPfHrgWfZoaQifjzsi-77" edge="1">
          <mxGeometry width="50" height="50" relative="1" as="geometry">
            <mxPoint x="1200" y="850" as="sourcePoint" />
            <mxPoint x="580" y="520" as="targetPoint" />
          </mxGeometry>
        </mxCell>
        <mxCell id="ROAPfHrgWfZoaQifjzsi-91" value="" style="endArrow=none;dashed=1;html=1;rounded=0;" parent="1" edge="1">
          <mxGeometry width="50" height="50" relative="1" as="geometry">
            <mxPoint y="840" as="sourcePoint" />
            <mxPoint x="1200" y="850" as="targetPoint" />
          </mxGeometry>
        </mxCell>
        <mxCell id="ROAPfHrgWfZoaQifjzsi-93" value="HK74CE_oktatas" style="ellipse;whiteSpace=wrap;html=1;" parent="1" vertex="1">
          <mxGeometry x="1460" y="-90" width="120" height="80" as="geometry" />
        </mxCell>
        <mxCell id="ROAPfHrgWfZoaQifjzsi-94" value="" style="endArrow=none;html=1;rounded=0;entryX=0.5;entryY=1;entryDx=0;entryDy=0;exitX=0.5;exitY=0;exitDx=0;exitDy=0;" parent="1" source="ROAPfHrgWfZoaQifjzsi-6" target="ROAPfHrgWfZoaQifjzsi-93" edge="1">
          <mxGeometry width="50" height="50" relative="1" as="geometry">
            <mxPoint x="360" y="400" as="sourcePoint" />
            <mxPoint x="410" y="350" as="targetPoint" />
          </mxGeometry>
        </mxCell>
        <mxCell id="ROAPfHrgWfZoaQifjzsi-95" value="" style="endArrow=none;dashed=1;html=1;rounded=0;" parent="1" edge="1">
          <mxGeometry width="50" height="50" relative="1" as="geometry">
            <mxPoint y="840" as="sourcePoint" />
            <mxPoint y="300" as="targetPoint" />
          </mxGeometry>
        </mxCell>
        <mxCell id="ROAPfHrgWfZoaQifjzsi-96" value="" style="endArrow=none;dashed=1;html=1;rounded=0;entryX=0;entryY=0.5;entryDx=0;entryDy=0;" parent="1" target="ROAPfHrgWfZoaQifjzsi-8" edge="1">
          <mxGeometry width="50" height="50" relative="1" as="geometry">
            <mxPoint y="300" as="sourcePoint" />
            <mxPoint x="560" y="430" as="targetPoint" />
          </mxGeometry>
        </mxCell>
        <mxCell id="ROAPfHrgWfZoaQifjzsi-97" value="" style="ellipse;whiteSpace=wrap;html=1;" parent="1" vertex="1">
          <mxGeometry x="1460" y="210" width="120" height="80" as="geometry" />
        </mxCell>
        <mxCell id="ROAPfHrgWfZoaQifjzsi-98" value="" style="ellipse;whiteSpace=wrap;html=1;" parent="1" vertex="1">
          <mxGeometry x="1970" y="210" width="120" height="80" as="geometry" />
        </mxCell>
        <mxCell id="ROAPfHrgWfZoaQifjzsi-99" value="" style="ellipse;whiteSpace=wrap;html=1;" parent="1" vertex="1">
          <mxGeometry x="2550" y="210" width="120" height="80" as="geometry" />
        </mxCell>
        <mxCell id="ROAPfHrgWfZoaQifjzsi-100" value="&lt;u&gt;tanar_id&lt;/u&gt;" style="rhombus;whiteSpace=wrap;html=1;" parent="1" vertex="1">
          <mxGeometry x="1340" y="250" width="80" height="80" as="geometry" />
        </mxCell>
        <mxCell id="ROAPfHrgWfZoaQifjzsi-101" value="" style="endArrow=none;html=1;rounded=0;entryX=0;entryY=0.5;entryDx=0;entryDy=0;exitX=0.5;exitY=0;exitDx=0;exitDy=0;" parent="1" source="ROAPfHrgWfZoaQifjzsi-100" target="ROAPfHrgWfZoaQifjzsi-97" edge="1">
          <mxGeometry width="50" height="50" relative="1" as="geometry">
            <mxPoint x="1470" y="510" as="sourcePoint" />
            <mxPoint x="1520" y="460" as="targetPoint" />
          </mxGeometry>
        </mxCell>
        <mxCell id="ROAPfHrgWfZoaQifjzsi-102" value="Tanar" style="ellipse;whiteSpace=wrap;html=1;" parent="1" vertex="1">
          <mxGeometry x="1475" y="220" width="90" height="60" as="geometry" />
        </mxCell>
        <mxCell id="ROAPfHrgWfZoaQifjzsi-103" value="" style="rounded=0;whiteSpace=wrap;html=1;direction=south;" parent="1" vertex="1">
          <mxGeometry x="1640" y="470" width="60" height="120" as="geometry" />
        </mxCell>
        <mxCell id="ROAPfHrgWfZoaQifjzsi-104" value="" style="endArrow=none;html=1;rounded=0;exitX=0;exitY=0.5;exitDx=0;exitDy=0;entryX=0.5;entryY=1;entryDx=0;entryDy=0;" parent="1" source="ROAPfHrgWfZoaQifjzsi-103" target="ROAPfHrgWfZoaQifjzsi-105" edge="1">
          <mxGeometry width="50" height="50" relative="1" as="geometry">
            <mxPoint x="2000" y="422.5" as="sourcePoint" />
            <mxPoint x="1670" y="477.5" as="targetPoint" />
          </mxGeometry>
        </mxCell>
        <mxCell id="ROAPfHrgWfZoaQifjzsi-105" value="szakterulet" style="ellipse;whiteSpace=wrap;html=1;" parent="1" vertex="1">
          <mxGeometry x="1610" y="360" width="120" height="80" as="geometry" />
        </mxCell>
        <mxCell id="ROAPfHrgWfZoaQifjzsi-107" value="beosztas" style="ellipse;whiteSpace=wrap;html=1;" parent="1" vertex="1">
          <mxGeometry x="1460" y="360" width="120" height="80" as="geometry" />
        </mxCell>
        <mxCell id="ROAPfHrgWfZoaQifjzsi-108" value="nev" style="ellipse;whiteSpace=wrap;html=1;" parent="1" vertex="1">
          <mxGeometry x="1290" y="362.5" width="120" height="80" as="geometry" />
        </mxCell>
        <mxCell id="ROAPfHrgWfZoaQifjzsi-109" value="" style="endArrow=none;html=1;rounded=0;exitX=0.5;exitY=0;exitDx=0;exitDy=0;entryX=0.5;entryY=1;entryDx=0;entryDy=0;" parent="1" source="ROAPfHrgWfZoaQifjzsi-108" target="ROAPfHrgWfZoaQifjzsi-97" edge="1">
          <mxGeometry width="50" height="50" relative="1" as="geometry">
            <mxPoint x="1460" y="420" as="sourcePoint" />
            <mxPoint x="1530" y="300" as="targetPoint" />
          </mxGeometry>
        </mxCell>
        <mxCell id="ROAPfHrgWfZoaQifjzsi-110" value="" style="endArrow=none;html=1;rounded=0;entryX=0.5;entryY=1;entryDx=0;entryDy=0;exitX=0.5;exitY=0;exitDx=0;exitDy=0;" parent="1" source="ROAPfHrgWfZoaQifjzsi-107" target="ROAPfHrgWfZoaQifjzsi-97" edge="1">
          <mxGeometry width="50" height="50" relative="1" as="geometry">
            <mxPoint x="1460" y="420" as="sourcePoint" />
            <mxPoint x="1510" y="370" as="targetPoint" />
          </mxGeometry>
        </mxCell>
        <mxCell id="ROAPfHrgWfZoaQifjzsi-111" value="" style="endArrow=none;html=1;rounded=0;entryX=0.5;entryY=1;entryDx=0;entryDy=0;exitX=0.5;exitY=0;exitDx=0;exitDy=0;" parent="1" source="ROAPfHrgWfZoaQifjzsi-105" target="ROAPfHrgWfZoaQifjzsi-97" edge="1">
          <mxGeometry width="50" height="50" relative="1" as="geometry">
            <mxPoint x="1460" y="420" as="sourcePoint" />
            <mxPoint x="1510" y="370" as="targetPoint" />
          </mxGeometry>
        </mxCell>
        <mxCell id="ROAPfHrgWfZoaQifjzsi-112" value="K-Tan" style="rhombus;whiteSpace=wrap;html=1;" parent="1" vertex="1">
          <mxGeometry x="1730" y="250" width="80" height="80" as="geometry" />
        </mxCell>
        <mxCell id="ROAPfHrgWfZoaQifjzsi-115" value="" style="endArrow=none;html=1;rounded=0;entryX=0.5;entryY=0;entryDx=0;entryDy=0;exitX=1;exitY=0.5;exitDx=0;exitDy=0;" parent="1" source="ROAPfHrgWfZoaQifjzsi-97" target="ROAPfHrgWfZoaQifjzsi-112" edge="1">
          <mxGeometry width="50" height="50" relative="1" as="geometry">
            <mxPoint x="1290" y="430" as="sourcePoint" />
            <mxPoint x="1340" y="380" as="targetPoint" />
          </mxGeometry>
        </mxCell>
        <mxCell id="ROAPfHrgWfZoaQifjzsi-116" value="" style="endArrow=none;dashed=1;html=1;dashPattern=1 3;strokeWidth=2;rounded=0;entryX=0.5;entryY=1;entryDx=0;entryDy=0;" parent="1" target="ROAPfHrgWfZoaQifjzsi-112" edge="1">
          <mxGeometry width="50" height="50" relative="1" as="geometry">
            <mxPoint x="1770" y="890" as="sourcePoint" />
            <mxPoint x="1340" y="380" as="targetPoint" />
          </mxGeometry>
        </mxCell>
        <mxCell id="ROAPfHrgWfZoaQifjzsi-117" value="" style="endArrow=none;dashed=1;html=1;dashPattern=1 3;strokeWidth=2;rounded=0;" parent="1" edge="1">
          <mxGeometry width="50" height="50" relative="1" as="geometry">
            <mxPoint x="-20" y="890" as="sourcePoint" />
            <mxPoint x="1770" y="890" as="targetPoint" />
          </mxGeometry>
        </mxCell>
        <mxCell id="ROAPfHrgWfZoaQifjzsi-118" value="" style="endArrow=none;dashed=1;html=1;dashPattern=1 3;strokeWidth=2;rounded=0;" parent="1" edge="1">
          <mxGeometry width="50" height="50" relative="1" as="geometry">
            <mxPoint x="-20" y="890" as="sourcePoint" />
            <mxPoint x="-20" y="280" as="targetPoint" />
          </mxGeometry>
        </mxCell>
        <mxCell id="ROAPfHrgWfZoaQifjzsi-119" value="" style="endArrow=none;dashed=1;html=1;rounded=0;entryX=0;entryY=0;entryDx=0;entryDy=0;" parent="1" target="ROAPfHrgWfZoaQifjzsi-8" edge="1">
          <mxGeometry width="50" height="50" relative="1" as="geometry">
            <mxPoint x="-20" y="280" as="sourcePoint" />
            <mxPoint x="130" y="290" as="targetPoint" />
          </mxGeometry>
        </mxCell>
        <mxCell id="ROAPfHrgWfZoaQifjzsi-120" value="" style="endArrow=none;html=1;rounded=0;entryX=0.5;entryY=1;entryDx=0;entryDy=0;exitX=0.5;exitY=0;exitDx=0;exitDy=0;" parent="1" source="ROAPfHrgWfZoaQifjzsi-68" target="ROAPfHrgWfZoaQifjzsi-93" edge="1">
          <mxGeometry width="50" height="50" relative="1" as="geometry">
            <mxPoint x="1080" y="260" as="sourcePoint" />
            <mxPoint x="1130" y="210" as="targetPoint" />
          </mxGeometry>
        </mxCell>
        <mxCell id="ROAPfHrgWfZoaQifjzsi-121" value="" style="endArrow=none;html=1;rounded=0;entryX=0.5;entryY=1;entryDx=0;entryDy=0;exitX=0.5;exitY=0;exitDx=0;exitDy=0;" parent="1" source="ROAPfHrgWfZoaQifjzsi-97" target="ROAPfHrgWfZoaQifjzsi-93" edge="1">
          <mxGeometry width="50" height="50" relative="1" as="geometry">
            <mxPoint x="1080" y="260" as="sourcePoint" />
            <mxPoint x="1130" y="210" as="targetPoint" />
          </mxGeometry>
        </mxCell>
        <mxCell id="3DLfMae9XXRwTqTxBzFo-1" value="K-Tgy" style="rhombus;whiteSpace=wrap;html=1;" parent="1" vertex="1">
          <mxGeometry x="2200" y="250" width="80" height="80" as="geometry" />
        </mxCell>
        <mxCell id="3DLfMae9XXRwTqTxBzFo-2" value="" style="endArrow=none;dashed=1;html=1;dashPattern=1 3;strokeWidth=2;rounded=0;exitX=0;exitY=1;exitDx=0;exitDy=0;entryX=1;entryY=1;entryDx=0;entryDy=0;" parent="1" source="3DLfMae9XXRwTqTxBzFo-1" target="3DLfMae9XXRwTqTxBzFo-1" edge="1">
          <mxGeometry width="50" height="50" relative="1" as="geometry">
            <mxPoint x="1420" y="347.5" as="sourcePoint" />
            <mxPoint x="1470" y="297.5" as="targetPoint" />
          </mxGeometry>
        </mxCell>
        <mxCell id="3DLfMae9XXRwTqTxBzFo-3" value="" style="endArrow=none;html=1;rounded=0;entryX=0.5;entryY=0;entryDx=0;entryDy=0;exitX=1;exitY=0.5;exitDx=0;exitDy=0;" parent="1" source="ROAPfHrgWfZoaQifjzsi-98" target="3DLfMae9XXRwTqTxBzFo-1" edge="1">
          <mxGeometry width="50" height="50" relative="1" as="geometry">
            <mxPoint x="1370" y="347.5" as="sourcePoint" />
            <mxPoint x="1420" y="297.5" as="targetPoint" />
          </mxGeometry>
        </mxCell>
        <mxCell id="3DLfMae9XXRwTqTxBzFo-4" value="" style="endArrow=none;dashed=1;html=1;dashPattern=1 3;strokeWidth=2;rounded=0;exitX=0.5;exitY=1;exitDx=0;exitDy=0;" parent="1" source="3DLfMae9XXRwTqTxBzFo-1" edge="1">
          <mxGeometry width="50" height="50" relative="1" as="geometry">
            <mxPoint x="1370" y="330" as="sourcePoint" />
            <mxPoint x="2240" y="930" as="targetPoint" />
          </mxGeometry>
        </mxCell>
        <mxCell id="3DLfMae9XXRwTqTxBzFo-5" value="" style="endArrow=none;dashed=1;html=1;dashPattern=1 3;strokeWidth=2;rounded=0;" parent="1" edge="1">
          <mxGeometry width="50" height="50" relative="1" as="geometry">
            <mxPoint x="-50" y="930" as="sourcePoint" />
            <mxPoint x="2240" y="930" as="targetPoint" />
          </mxGeometry>
        </mxCell>
        <mxCell id="3DLfMae9XXRwTqTxBzFo-6" value="" style="endArrow=none;dashed=1;html=1;dashPattern=1 3;strokeWidth=2;rounded=0;" parent="1" edge="1">
          <mxGeometry width="50" height="50" relative="1" as="geometry">
            <mxPoint x="-50" y="930" as="sourcePoint" />
            <mxPoint x="-50" y="260" as="targetPoint" />
          </mxGeometry>
        </mxCell>
        <mxCell id="3DLfMae9XXRwTqTxBzFo-7" value="" style="endArrow=none;dashed=1;html=1;dashPattern=1 3;strokeWidth=2;rounded=0;entryX=0.5;entryY=0;entryDx=0;entryDy=0;" parent="1" target="ROAPfHrgWfZoaQifjzsi-8" edge="1">
          <mxGeometry width="50" height="50" relative="1" as="geometry">
            <mxPoint x="-50" y="260" as="sourcePoint" />
            <mxPoint x="160" y="270" as="targetPoint" />
          </mxGeometry>
        </mxCell>
        <mxCell id="3DLfMae9XXRwTqTxBzFo-8" value="&lt;u&gt;targy_id&lt;/u&gt;" style="rhombus;whiteSpace=wrap;html=1;" parent="1" vertex="1">
          <mxGeometry x="1850" y="250" width="80" height="80" as="geometry" />
        </mxCell>
        <mxCell id="3DLfMae9XXRwTqTxBzFo-9" value="" style="endArrow=none;html=1;rounded=0;entryX=0;entryY=0.5;entryDx=0;entryDy=0;exitX=0.5;exitY=0;exitDx=0;exitDy=0;" parent="1" source="3DLfMae9XXRwTqTxBzFo-8" target="ROAPfHrgWfZoaQifjzsi-98" edge="1">
          <mxGeometry width="50" height="50" relative="1" as="geometry">
            <mxPoint x="1210" y="347.5" as="sourcePoint" />
            <mxPoint x="1260" y="297.5" as="targetPoint" />
          </mxGeometry>
        </mxCell>
        <mxCell id="3DLfMae9XXRwTqTxBzFo-10" value="kredit" style="ellipse;whiteSpace=wrap;html=1;" parent="1" vertex="1">
          <mxGeometry x="1970" y="367.5" width="120" height="80" as="geometry" />
        </mxCell>
        <mxCell id="3DLfMae9XXRwTqTxBzFo-11" value="nev" style="ellipse;whiteSpace=wrap;html=1;" parent="1" vertex="1">
          <mxGeometry x="1840" y="370" width="120" height="80" as="geometry" />
        </mxCell>
        <mxCell id="3DLfMae9XXRwTqTxBzFo-12" value="" style="endArrow=none;html=1;rounded=0;entryX=0.5;entryY=1;entryDx=0;entryDy=0;exitX=0.5;exitY=0;exitDx=0;exitDy=0;" parent="1" source="3DLfMae9XXRwTqTxBzFo-11" target="ROAPfHrgWfZoaQifjzsi-98" edge="1">
          <mxGeometry width="50" height="50" relative="1" as="geometry">
            <mxPoint x="1210" y="347.5" as="sourcePoint" />
            <mxPoint x="1260" y="297.5" as="targetPoint" />
          </mxGeometry>
        </mxCell>
        <mxCell id="3DLfMae9XXRwTqTxBzFo-13" value="" style="endArrow=none;html=1;rounded=0;entryX=0.5;entryY=1;entryDx=0;entryDy=0;exitX=0.5;exitY=0;exitDx=0;exitDy=0;" parent="1" source="3DLfMae9XXRwTqTxBzFo-10" target="ROAPfHrgWfZoaQifjzsi-98" edge="1">
          <mxGeometry width="50" height="50" relative="1" as="geometry">
            <mxPoint x="1210" y="347.5" as="sourcePoint" />
            <mxPoint x="1260" y="297.5" as="targetPoint" />
          </mxGeometry>
        </mxCell>
        <mxCell id="3DLfMae9XXRwTqTxBzFo-14" value="" style="endArrow=none;html=1;rounded=0;entryX=0.5;entryY=1;entryDx=0;entryDy=0;exitX=0;exitY=0.5;exitDx=0;exitDy=0;" parent="1" source="3DLfMae9XXRwTqTxBzFo-15" target="3DLfMae9XXRwTqTxBzFo-11" edge="1">
          <mxGeometry width="50" height="50" relative="1" as="geometry">
            <mxPoint x="1910" y="462.5" as="sourcePoint" />
            <mxPoint x="1230" y="292.5" as="targetPoint" />
          </mxGeometry>
        </mxCell>
        <mxCell id="3DLfMae9XXRwTqTxBzFo-15" value="" style="rounded=0;whiteSpace=wrap;html=1;direction=south;" parent="1" vertex="1">
          <mxGeometry x="1870" y="460" width="60" height="120" as="geometry" />
        </mxCell>
        <mxCell id="iWvI_TgvHW9LkMBrBu7h-1" value="&lt;u&gt;diak_id&lt;/u&gt;" style="rhombus;whiteSpace=wrap;html=1;" parent="1" vertex="1">
          <mxGeometry x="2340" y="250" width="80" height="80" as="geometry" />
        </mxCell>
        <mxCell id="iWvI_TgvHW9LkMBrBu7h-2" value="" style="endArrow=none;html=1;rounded=0;exitX=0.5;exitY=0;exitDx=0;exitDy=0;entryX=0;entryY=0.5;entryDx=0;entryDy=0;" parent="1" source="iWvI_TgvHW9LkMBrBu7h-1" target="ROAPfHrgWfZoaQifjzsi-99" edge="1">
          <mxGeometry width="50" height="50" relative="1" as="geometry">
            <mxPoint x="2920" y="460" as="sourcePoint" />
            <mxPoint x="2970" y="410" as="targetPoint" />
          </mxGeometry>
        </mxCell>
        <mxCell id="iWvI_TgvHW9LkMBrBu7h-3" value="lakcim" style="ellipse;whiteSpace=wrap;html=1;" parent="1" vertex="1">
          <mxGeometry x="2835" y="362.5" width="120" height="80" as="geometry" />
        </mxCell>
        <mxCell id="iWvI_TgvHW9LkMBrBu7h-4" value="szul_datum" style="ellipse;whiteSpace=wrap;html=1;" parent="1" vertex="1">
          <mxGeometry x="2520" y="367.5" width="120" height="80" as="geometry" />
        </mxCell>
        <mxCell id="iWvI_TgvHW9LkMBrBu7h-6" value="" style="endArrow=none;html=1;rounded=0;entryX=0.5;entryY=1;entryDx=0;entryDy=0;exitX=0.5;exitY=0;exitDx=0;exitDy=0;" parent="1" source="oDda9OyDIdGuTbppPwnk-18" target="ROAPfHrgWfZoaQifjzsi-99" edge="1">
          <mxGeometry width="50" height="50" relative="1" as="geometry">
            <mxPoint x="2380" y="367.5" as="sourcePoint" />
            <mxPoint x="2180" y="410" as="targetPoint" />
          </mxGeometry>
        </mxCell>
        <mxCell id="iWvI_TgvHW9LkMBrBu7h-7" value="" style="endArrow=none;html=1;rounded=0;entryX=0.5;entryY=1;entryDx=0;entryDy=0;exitX=0.5;exitY=0;exitDx=0;exitDy=0;" parent="1" source="iWvI_TgvHW9LkMBrBu7h-4" target="ROAPfHrgWfZoaQifjzsi-99" edge="1">
          <mxGeometry width="50" height="50" relative="1" as="geometry">
            <mxPoint x="2130" y="460" as="sourcePoint" />
            <mxPoint x="2180" y="410" as="targetPoint" />
          </mxGeometry>
        </mxCell>
        <mxCell id="iWvI_TgvHW9LkMBrBu7h-8" value="" style="endArrow=none;html=1;rounded=0;entryX=0.5;entryY=1;entryDx=0;entryDy=0;exitX=0.5;exitY=0;exitDx=0;exitDy=0;" parent="1" source="iWvI_TgvHW9LkMBrBu7h-3" target="ROAPfHrgWfZoaQifjzsi-99" edge="1">
          <mxGeometry width="50" height="50" relative="1" as="geometry">
            <mxPoint x="2130" y="460" as="sourcePoint" />
            <mxPoint x="2180" y="410" as="targetPoint" />
          </mxGeometry>
        </mxCell>
        <mxCell id="iWvI_TgvHW9LkMBrBu7h-9" value="" style="endArrow=none;html=1;rounded=0;entryX=0.5;entryY=1;entryDx=0;entryDy=0;exitX=0.5;exitY=0;exitDx=0;exitDy=0;" parent="1" source="iWvI_TgvHW9LkMBrBu7h-18" target="iWvI_TgvHW9LkMBrBu7h-3" edge="1">
          <mxGeometry width="50" height="50" relative="1" as="geometry">
            <mxPoint x="2895" y="462.5" as="sourcePoint" />
            <mxPoint x="2395" y="402.5" as="targetPoint" />
          </mxGeometry>
        </mxCell>
        <mxCell id="iWvI_TgvHW9LkMBrBu7h-10" value="" style="endArrow=none;html=1;rounded=0;entryX=0.5;entryY=1;entryDx=0;entryDy=0;exitX=1;exitY=0.5;exitDx=0;exitDy=0;" parent="1" edge="1">
          <mxGeometry width="50" height="50" relative="1" as="geometry">
            <mxPoint x="2514.38" y="330.25" as="sourcePoint" />
            <mxPoint x="2514.38" y="312.75" as="targetPoint" />
          </mxGeometry>
        </mxCell>
        <mxCell id="iWvI_TgvHW9LkMBrBu7h-13" value="" style="rounded=0;whiteSpace=wrap;html=1;rotation=-90;" parent="1" vertex="1">
          <mxGeometry x="2520" y="497" width="120" height="60" as="geometry" />
        </mxCell>
        <mxCell id="iWvI_TgvHW9LkMBrBu7h-18" value="Varos" style="ellipse;whiteSpace=wrap;html=1;" parent="1" vertex="1">
          <mxGeometry x="2725" y="592.5" width="100" height="70" as="geometry" />
        </mxCell>
        <mxCell id="iWvI_TgvHW9LkMBrBu7h-19" value="Utca" style="ellipse;whiteSpace=wrap;html=1;" parent="1" vertex="1">
          <mxGeometry x="2845" y="592.5" width="100" height="70" as="geometry" />
        </mxCell>
        <mxCell id="iWvI_TgvHW9LkMBrBu7h-20" value="Hazszam" style="ellipse;whiteSpace=wrap;html=1;" parent="1" vertex="1">
          <mxGeometry x="2965" y="589.25" width="100" height="70" as="geometry" />
        </mxCell>
        <mxCell id="iWvI_TgvHW9LkMBrBu7h-21" value="" style="endArrow=none;html=1;rounded=0;entryX=0.5;entryY=1;entryDx=0;entryDy=0;exitX=0.5;exitY=0;exitDx=0;exitDy=0;" parent="1" source="iWvI_TgvHW9LkMBrBu7h-19" target="iWvI_TgvHW9LkMBrBu7h-3" edge="1">
          <mxGeometry width="50" height="50" relative="1" as="geometry">
            <mxPoint x="2605" y="672.5" as="sourcePoint" />
            <mxPoint x="2655" y="622.5" as="targetPoint" />
          </mxGeometry>
        </mxCell>
        <mxCell id="iWvI_TgvHW9LkMBrBu7h-22" value="" style="endArrow=none;html=1;rounded=0;entryX=0.5;entryY=1;entryDx=0;entryDy=0;exitX=0.5;exitY=0;exitDx=0;exitDy=0;" parent="1" source="iWvI_TgvHW9LkMBrBu7h-20" target="iWvI_TgvHW9LkMBrBu7h-3" edge="1">
          <mxGeometry width="50" height="50" relative="1" as="geometry">
            <mxPoint x="3015" y="592.5" as="sourcePoint" />
            <mxPoint x="2655" y="622.5" as="targetPoint" />
          </mxGeometry>
        </mxCell>
        <mxCell id="iWvI_TgvHW9LkMBrBu7h-23" value="" style="endArrow=none;html=1;rounded=0;entryX=0.5;entryY=1;entryDx=0;entryDy=0;exitX=1;exitY=0.5;exitDx=0;exitDy=0;" parent="1" source="iWvI_TgvHW9LkMBrBu7h-26" edge="1">
          <mxGeometry width="50" height="50" relative="1" as="geometry">
            <mxPoint x="3015" y="692.5" as="sourcePoint" />
            <mxPoint x="3015" y="662.5" as="targetPoint" />
          </mxGeometry>
        </mxCell>
        <mxCell id="iWvI_TgvHW9LkMBrBu7h-24" value="" style="endArrow=none;html=1;rounded=0;entryX=0.5;entryY=1;entryDx=0;entryDy=0;exitX=1;exitY=0.5;exitDx=0;exitDy=0;" parent="1" source="iWvI_TgvHW9LkMBrBu7h-27" target="iWvI_TgvHW9LkMBrBu7h-19" edge="1">
          <mxGeometry width="50" height="50" relative="1" as="geometry">
            <mxPoint x="2895" y="692.5" as="sourcePoint" />
            <mxPoint x="2655" y="622.5" as="targetPoint" />
          </mxGeometry>
        </mxCell>
        <mxCell id="iWvI_TgvHW9LkMBrBu7h-25" value="" style="endArrow=none;html=1;rounded=0;entryX=0.5;entryY=1;entryDx=0;entryDy=0;exitX=1;exitY=0.5;exitDx=0;exitDy=0;" parent="1" source="iWvI_TgvHW9LkMBrBu7h-28" target="iWvI_TgvHW9LkMBrBu7h-18" edge="1">
          <mxGeometry width="50" height="50" relative="1" as="geometry">
            <mxPoint x="2775" y="692.5" as="sourcePoint" />
            <mxPoint x="2655" y="622.5" as="targetPoint" />
          </mxGeometry>
        </mxCell>
        <mxCell id="iWvI_TgvHW9LkMBrBu7h-26" value="" style="rounded=0;whiteSpace=wrap;html=1;rotation=-90;" parent="1" vertex="1">
          <mxGeometry x="2955" y="712.5" width="120" height="60" as="geometry" />
        </mxCell>
        <mxCell id="iWvI_TgvHW9LkMBrBu7h-27" value="" style="rounded=0;whiteSpace=wrap;html=1;rotation=-90;" parent="1" vertex="1">
          <mxGeometry x="2835" y="712.5" width="120" height="60" as="geometry" />
        </mxCell>
        <mxCell id="iWvI_TgvHW9LkMBrBu7h-28" value="" style="rounded=0;whiteSpace=wrap;html=1;rotation=-90;" parent="1" vertex="1">
          <mxGeometry x="2715" y="712.5" width="120" height="60" as="geometry" />
        </mxCell>
        <mxCell id="iWvI_TgvHW9LkMBrBu7h-30" value="" style="endArrow=none;html=1;rounded=0;entryX=0.5;entryY=0;entryDx=0;entryDy=0;exitX=0.5;exitY=1;exitDx=0;exitDy=0;" parent="1" source="ROAPfHrgWfZoaQifjzsi-93" target="ROAPfHrgWfZoaQifjzsi-45" edge="1">
          <mxGeometry width="50" height="50" relative="1" as="geometry">
            <mxPoint x="2710" y="490" as="sourcePoint" />
            <mxPoint x="2760" y="440" as="targetPoint" />
          </mxGeometry>
        </mxCell>
        <mxCell id="iWvI_TgvHW9LkMBrBu7h-31" value="" style="endArrow=none;html=1;rounded=0;exitX=0.5;exitY=1;exitDx=0;exitDy=0;entryX=0.5;entryY=0;entryDx=0;entryDy=0;" parent="1" source="ROAPfHrgWfZoaQifjzsi-93" target="ROAPfHrgWfZoaQifjzsi-98" edge="1">
          <mxGeometry width="50" height="50" relative="1" as="geometry">
            <mxPoint x="1640" y="270" as="sourcePoint" />
            <mxPoint x="1690" y="220" as="targetPoint" />
          </mxGeometry>
        </mxCell>
        <mxCell id="iWvI_TgvHW9LkMBrBu7h-32" value="" style="endArrow=none;html=1;rounded=0;entryX=0.5;entryY=1;entryDx=0;entryDy=0;exitX=0.5;exitY=0;exitDx=0;exitDy=0;" parent="1" source="ROAPfHrgWfZoaQifjzsi-99" target="ROAPfHrgWfZoaQifjzsi-93" edge="1">
          <mxGeometry width="50" height="50" relative="1" as="geometry">
            <mxPoint x="1640" y="270" as="sourcePoint" />
            <mxPoint x="1690" y="220" as="targetPoint" />
          </mxGeometry>
        </mxCell>
        <mxCell id="iWvI_TgvHW9LkMBrBu7h-33" value="Tantargy" style="ellipse;whiteSpace=wrap;html=1;" parent="1" vertex="1">
          <mxGeometry x="1985" y="220" width="90" height="60" as="geometry" />
        </mxCell>
        <mxCell id="iWvI_TgvHW9LkMBrBu7h-34" value="Diak" style="ellipse;whiteSpace=wrap;html=1;" parent="1" vertex="1">
          <mxGeometry x="2562.5" y="217.5" width="95" height="65" as="geometry" />
        </mxCell>
        <mxCell id="iWvI_TgvHW9LkMBrBu7h-35" value="" style="endArrow=none;dashed=1;html=1;dashPattern=1 3;strokeWidth=2;rounded=0;entryX=0.5;entryY=1;entryDx=0;entryDy=0;" parent="1" target="ROAPfHrgWfZoaQifjzsi-50" edge="1">
          <mxGeometry width="50" height="50" relative="1" as="geometry">
            <mxPoint x="3390" y="1000" as="sourcePoint" />
            <mxPoint x="2760" y="600" as="targetPoint" />
          </mxGeometry>
        </mxCell>
        <mxCell id="iWvI_TgvHW9LkMBrBu7h-36" value="" style="endArrow=none;dashed=1;html=1;dashPattern=1 3;strokeWidth=2;rounded=0;" parent="1" edge="1">
          <mxGeometry width="50" height="50" relative="1" as="geometry">
            <mxPoint x="-120" y="1000" as="sourcePoint" />
            <mxPoint x="3390" y="1000" as="targetPoint" />
          </mxGeometry>
        </mxCell>
        <mxCell id="iWvI_TgvHW9LkMBrBu7h-37" value="" style="endArrow=none;dashed=1;html=1;dashPattern=1 3;strokeWidth=2;rounded=0;" parent="1" edge="1">
          <mxGeometry width="50" height="50" relative="1" as="geometry">
            <mxPoint x="-120" y="1000" as="sourcePoint" />
            <mxPoint x="-120" y="210" as="targetPoint" />
          </mxGeometry>
        </mxCell>
        <mxCell id="iWvI_TgvHW9LkMBrBu7h-38" value="" style="endArrow=none;dashed=1;html=1;dashPattern=1 3;strokeWidth=2;rounded=0;" parent="1" edge="1">
          <mxGeometry width="50" height="50" relative="1" as="geometry">
            <mxPoint x="-120" y="210" as="sourcePoint" />
            <mxPoint x="190" y="210" as="targetPoint" />
          </mxGeometry>
        </mxCell>
        <mxCell id="iWvI_TgvHW9LkMBrBu7h-40" value="" style="endArrow=none;dashed=1;html=1;dashPattern=1 3;strokeWidth=2;rounded=0;entryX=0;entryY=1;entryDx=0;entryDy=0;exitX=1;exitY=1;exitDx=0;exitDy=0;" parent="1" source="ROAPfHrgWfZoaQifjzsi-112" target="ROAPfHrgWfZoaQifjzsi-112" edge="1">
          <mxGeometry width="50" height="50" relative="1" as="geometry">
            <mxPoint x="800" y="630" as="sourcePoint" />
            <mxPoint x="850" y="580" as="targetPoint" />
          </mxGeometry>
        </mxCell>
        <mxCell id="iWvI_TgvHW9LkMBrBu7h-41" value="" style="rounded=0;whiteSpace=wrap;html=1;rotation=-90;" parent="1" vertex="1">
          <mxGeometry x="1460" y="500" width="120" height="60" as="geometry" />
        </mxCell>
        <mxCell id="iWvI_TgvHW9LkMBrBu7h-43" value="" style="endArrow=none;html=1;rounded=0;exitX=1;exitY=0.5;exitDx=0;exitDy=0;entryX=0.5;entryY=1;entryDx=0;entryDy=0;" parent="1" source="iWvI_TgvHW9LkMBrBu7h-41" target="ROAPfHrgWfZoaQifjzsi-107" edge="1">
          <mxGeometry width="50" height="50" relative="1" as="geometry">
            <mxPoint x="1830" y="600" as="sourcePoint" />
            <mxPoint x="1880" y="550" as="targetPoint" />
          </mxGeometry>
        </mxCell>
        <mxCell id="DxA6hMR1FraLRWYeFAij-1" value="nyelv" style="ellipse;whiteSpace=wrap;html=1;" parent="1" vertex="1">
          <mxGeometry x="2100" y="370" width="120" height="80" as="geometry" />
        </mxCell>
        <mxCell id="DxA6hMR1FraLRWYeFAij-4" value="" style="endArrow=none;html=1;rounded=0;entryX=0.5;entryY=1;entryDx=0;entryDy=0;exitX=0.5;exitY=0;exitDx=0;exitDy=0;" parent="1" source="DxA6hMR1FraLRWYeFAij-1" target="ROAPfHrgWfZoaQifjzsi-98" edge="1">
          <mxGeometry width="50" height="50" relative="1" as="geometry">
            <mxPoint x="2070" y="420" as="sourcePoint" />
            <mxPoint x="2120" y="370" as="targetPoint" />
          </mxGeometry>
        </mxCell>
        <mxCell id="DxA6hMR1FraLRWYeFAij-6" value="" style="endArrow=none;html=1;rounded=0;entryX=0.5;entryY=1;entryDx=0;entryDy=0;exitX=1;exitY=0.5;exitDx=0;exitDy=0;" parent="1" source="DxA6hMR1FraLRWYeFAij-7" target="DxA6hMR1FraLRWYeFAij-1" edge="1">
          <mxGeometry width="50" height="50" relative="1" as="geometry">
            <mxPoint x="2160" y="480" as="sourcePoint" />
            <mxPoint x="2110" y="480" as="targetPoint" />
          </mxGeometry>
        </mxCell>
        <mxCell id="DxA6hMR1FraLRWYeFAij-7" value="" style="rounded=0;whiteSpace=wrap;html=1;rotation=-90;" parent="1" vertex="1">
          <mxGeometry x="2100" y="494.5" width="120" height="60" as="geometry" />
        </mxCell>
        <mxCell id="DxA6hMR1FraLRWYeFAij-8" value="Ertekeles" style="ellipse;whiteSpace=wrap;html=1;" parent="1" vertex="1">
          <mxGeometry x="3173" y="227.5" width="90" height="60" as="geometry" />
        </mxCell>
        <mxCell id="DxA6hMR1FraLRWYeFAij-9" value="alairas" style="ellipse;whiteSpace=wrap;html=1;" parent="1" vertex="1">
          <mxGeometry x="3250" y="362.5" width="120" height="80" as="geometry" />
        </mxCell>
        <mxCell id="DxA6hMR1FraLRWYeFAij-10" value="vizsga" style="ellipse;whiteSpace=wrap;html=1;" parent="1" vertex="1">
          <mxGeometry x="3100" y="362.5" width="120" height="80" as="geometry" />
        </mxCell>
        <mxCell id="DxA6hMR1FraLRWYeFAij-11" value="" style="endArrow=none;html=1;rounded=0;entryX=0.5;entryY=1;entryDx=0;entryDy=0;exitX=0.5;exitY=0;exitDx=0;exitDy=0;" parent="1" source="DxA6hMR1FraLRWYeFAij-10" target="ROAPfHrgWfZoaQifjzsi-45" edge="1">
          <mxGeometry width="50" height="50" relative="1" as="geometry">
            <mxPoint x="2578" y="517.5" as="sourcePoint" />
            <mxPoint x="2628" y="467.5" as="targetPoint" />
          </mxGeometry>
        </mxCell>
        <mxCell id="DxA6hMR1FraLRWYeFAij-12" value="" style="endArrow=none;html=1;rounded=0;entryX=0.5;entryY=1;entryDx=0;entryDy=0;exitX=0.5;exitY=0;exitDx=0;exitDy=0;" parent="1" source="DxA6hMR1FraLRWYeFAij-9" target="ROAPfHrgWfZoaQifjzsi-45" edge="1">
          <mxGeometry width="50" height="50" relative="1" as="geometry">
            <mxPoint x="2578" y="517.5" as="sourcePoint" />
            <mxPoint x="2628" y="467.5" as="targetPoint" />
          </mxGeometry>
        </mxCell>
        <mxCell id="DxA6hMR1FraLRWYeFAij-13" value="" style="endArrow=none;html=1;rounded=0;entryX=0.5;entryY=1;entryDx=0;entryDy=0;exitX=1;exitY=0.5;exitDx=0;exitDy=0;" parent="1" source="DxA6hMR1FraLRWYeFAij-15" target="DxA6hMR1FraLRWYeFAij-9" edge="1">
          <mxGeometry width="50" height="50" relative="1" as="geometry">
            <mxPoint x="3310" y="465" as="sourcePoint" />
            <mxPoint x="2780" y="445" as="targetPoint" />
          </mxGeometry>
        </mxCell>
        <mxCell id="DxA6hMR1FraLRWYeFAij-14" value="" style="endArrow=none;html=1;rounded=0;entryX=0.5;entryY=1;entryDx=0;entryDy=0;exitX=1;exitY=0.5;exitDx=0;exitDy=0;" parent="1" source="DxA6hMR1FraLRWYeFAij-16" target="DxA6hMR1FraLRWYeFAij-10" edge="1">
          <mxGeometry width="50" height="50" relative="1" as="geometry">
            <mxPoint x="3148" y="465" as="sourcePoint" />
            <mxPoint x="2768" y="445" as="targetPoint" />
          </mxGeometry>
        </mxCell>
        <mxCell id="DxA6hMR1FraLRWYeFAij-15" value="" style="rounded=0;whiteSpace=wrap;html=1;rotation=-90;" parent="1" vertex="1">
          <mxGeometry x="3250" y="485" width="120" height="60" as="geometry" />
        </mxCell>
        <mxCell id="DxA6hMR1FraLRWYeFAij-16" value="" style="rounded=0;whiteSpace=wrap;html=1;rotation=-90;" parent="1" vertex="1">
          <mxGeometry x="3100" y="485" width="120" height="60" as="geometry" />
        </mxCell>
        <mxCell id="DxA6hMR1FraLRWYeFAij-18" value="" style="endArrow=none;dashed=1;html=1;dashPattern=1 3;strokeWidth=2;rounded=0;entryX=0.5;entryY=1;entryDx=0;entryDy=0;" parent="1" target="ROAPfHrgWfZoaQifjzsi-51" edge="1">
          <mxGeometry width="50" height="50" relative="1" as="geometry">
            <mxPoint x="3090" y="960" as="sourcePoint" />
            <mxPoint x="2560" y="720" as="targetPoint" />
          </mxGeometry>
        </mxCell>
        <mxCell id="DxA6hMR1FraLRWYeFAij-19" value="" style="endArrow=none;dashed=1;html=1;dashPattern=1 3;strokeWidth=2;rounded=0;" parent="1" edge="1">
          <mxGeometry width="50" height="50" relative="1" as="geometry">
            <mxPoint x="-90" y="960" as="sourcePoint" />
            <mxPoint x="3090" y="960" as="targetPoint" />
          </mxGeometry>
        </mxCell>
        <mxCell id="DxA6hMR1FraLRWYeFAij-20" value="" style="endArrow=none;dashed=1;html=1;dashPattern=1 3;strokeWidth=2;rounded=0;" parent="1" edge="1">
          <mxGeometry width="50" height="50" relative="1" as="geometry">
            <mxPoint x="-90" y="960" as="sourcePoint" />
            <mxPoint x="-90" y="240" as="targetPoint" />
          </mxGeometry>
        </mxCell>
        <mxCell id="DxA6hMR1FraLRWYeFAij-21" value="" style="endArrow=none;dashed=1;html=1;dashPattern=1 3;strokeWidth=2;rounded=0;" parent="1" edge="1">
          <mxGeometry width="50" height="50" relative="1" as="geometry">
            <mxPoint x="170" y="240" as="sourcePoint" />
            <mxPoint x="-90" y="240" as="targetPoint" />
          </mxGeometry>
        </mxCell>
        <mxCell id="DxA6hMR1FraLRWYeFAij-22" value="" style="endArrow=none;dashed=1;html=1;dashPattern=1 3;strokeWidth=2;rounded=0;exitX=0.5;exitY=0;exitDx=0;exitDy=0;" parent="1" source="ROAPfHrgWfZoaQifjzsi-8" edge="1">
          <mxGeometry width="50" height="50" relative="1" as="geometry">
            <mxPoint x="80" y="450" as="sourcePoint" />
            <mxPoint x="170" y="240" as="targetPoint" />
          </mxGeometry>
        </mxCell>
        <mxCell id="DxA6hMR1FraLRWYeFAij-23" value="" style="endArrow=none;dashed=1;html=1;rounded=0;entryX=1;entryY=0;entryDx=0;entryDy=0;" parent="1" target="ROAPfHrgWfZoaQifjzsi-8" edge="1">
          <mxGeometry width="50" height="50" relative="1" as="geometry">
            <mxPoint x="190" y="210" as="sourcePoint" />
            <mxPoint x="130" y="400" as="targetPoint" />
          </mxGeometry>
        </mxCell>
        <mxCell id="oDda9OyDIdGuTbppPwnk-3" value="vezeteknev" style="ellipse;whiteSpace=wrap;html=1;" parent="1" vertex="1">
          <mxGeometry x="1227" y="607.75" width="102" height="57" as="geometry" />
        </mxCell>
        <mxCell id="oDda9OyDIdGuTbppPwnk-4" value="keresztnev" style="ellipse;whiteSpace=wrap;html=1;" parent="1" vertex="1">
          <mxGeometry x="1362.5" y="609.25" width="105" height="60" as="geometry" />
        </mxCell>
        <mxCell id="oDda9OyDIdGuTbppPwnk-5" value="" style="endArrow=none;html=1;rounded=0;entryX=0.5;entryY=1;entryDx=0;entryDy=0;exitX=0.5;exitY=0;exitDx=0;exitDy=0;" parent="1" source="oDda9OyDIdGuTbppPwnk-3" target="ROAPfHrgWfZoaQifjzsi-108" edge="1">
          <mxGeometry width="50" height="50" relative="1" as="geometry">
            <mxPoint x="1030" y="500" as="sourcePoint" />
            <mxPoint x="1080" y="450" as="targetPoint" />
          </mxGeometry>
        </mxCell>
        <mxCell id="oDda9OyDIdGuTbppPwnk-6" value="" style="endArrow=none;html=1;rounded=0;entryX=0.5;entryY=0;entryDx=0;entryDy=0;exitX=0.5;exitY=1;exitDx=0;exitDy=0;" parent="1" source="ROAPfHrgWfZoaQifjzsi-108" target="oDda9OyDIdGuTbppPwnk-4" edge="1">
          <mxGeometry width="50" height="50" relative="1" as="geometry">
            <mxPoint x="1030" y="500" as="sourcePoint" />
            <mxPoint x="1080" y="450" as="targetPoint" />
          </mxGeometry>
        </mxCell>
        <mxCell id="oDda9OyDIdGuTbppPwnk-7" value="" style="rounded=0;whiteSpace=wrap;html=1;direction=south;" parent="1" vertex="1">
          <mxGeometry x="1385" y="700" width="60" height="120" as="geometry" />
        </mxCell>
        <mxCell id="oDda9OyDIdGuTbppPwnk-8" value="" style="rounded=0;whiteSpace=wrap;html=1;direction=south;" parent="1" vertex="1">
          <mxGeometry x="1248" y="700" width="60" height="120" as="geometry" />
        </mxCell>
        <mxCell id="oDda9OyDIdGuTbppPwnk-9" value="" style="endArrow=none;html=1;rounded=0;exitX=0;exitY=0.5;exitDx=0;exitDy=0;entryX=0.5;entryY=1;entryDx=0;entryDy=0;" parent="1" source="oDda9OyDIdGuTbppPwnk-8" target="oDda9OyDIdGuTbppPwnk-3" edge="1">
          <mxGeometry width="50" height="50" relative="1" as="geometry">
            <mxPoint x="1441" y="640" as="sourcePoint" />
            <mxPoint x="1281" y="680" as="targetPoint" />
          </mxGeometry>
        </mxCell>
        <mxCell id="oDda9OyDIdGuTbppPwnk-10" value="" style="endArrow=none;html=1;rounded=0;exitX=0;exitY=0.5;exitDx=0;exitDy=0;entryX=0.5;entryY=1;entryDx=0;entryDy=0;" parent="1" source="oDda9OyDIdGuTbppPwnk-7" target="oDda9OyDIdGuTbppPwnk-4" edge="1">
          <mxGeometry width="50" height="50" relative="1" as="geometry">
            <mxPoint x="1255" y="600" as="sourcePoint" />
            <mxPoint x="1415" y="680" as="targetPoint" />
          </mxGeometry>
        </mxCell>
        <mxCell id="oDda9OyDIdGuTbppPwnk-11" value="" style="rounded=0;whiteSpace=wrap;html=1;direction=south;" parent="1" vertex="1">
          <mxGeometry x="2000" y="460" width="60" height="120" as="geometry" />
        </mxCell>
        <mxCell id="oDda9OyDIdGuTbppPwnk-12" value="" style="endArrow=none;html=1;rounded=0;entryX=0;entryY=0.5;entryDx=0;entryDy=0;exitX=0.5;exitY=1;exitDx=0;exitDy=0;" parent="1" source="3DLfMae9XXRwTqTxBzFo-10" target="oDda9OyDIdGuTbppPwnk-11" edge="1">
          <mxGeometry width="50" height="50" relative="1" as="geometry">
            <mxPoint x="1730" y="510" as="sourcePoint" />
            <mxPoint x="1780" y="460" as="targetPoint" />
          </mxGeometry>
        </mxCell>
        <mxCell id="oDda9OyDIdGuTbppPwnk-13" value="" style="ellipse;whiteSpace=wrap;html=1;" parent="1" vertex="1">
          <mxGeometry x="2657.5" y="367.5" width="120" height="80" as="geometry" />
        </mxCell>
        <mxCell id="oDda9OyDIdGuTbppPwnk-14" value="" style="endArrow=none;html=1;rounded=0;entryX=0.5;entryY=0;entryDx=0;entryDy=0;exitX=0.5;exitY=1;exitDx=0;exitDy=0;" parent="1" source="ROAPfHrgWfZoaQifjzsi-99" target="oDda9OyDIdGuTbppPwnk-13" edge="1">
          <mxGeometry width="50" height="50" relative="1" as="geometry">
            <mxPoint x="2290" y="510" as="sourcePoint" />
            <mxPoint x="2340" y="460" as="targetPoint" />
          </mxGeometry>
        </mxCell>
        <mxCell id="oDda9OyDIdGuTbppPwnk-16" value="" style="rounded=0;whiteSpace=wrap;html=1;rotation=-90;" parent="1" vertex="1">
          <mxGeometry x="2657.5" y="495" width="120" height="60" as="geometry" />
        </mxCell>
        <mxCell id="oDda9OyDIdGuTbppPwnk-17" value="email" style="ellipse;whiteSpace=wrap;html=1;" parent="1" vertex="1">
          <mxGeometry x="2672.5" y="375" width="90" height="65" as="geometry" />
        </mxCell>
        <mxCell id="oDda9OyDIdGuTbppPwnk-18" value="nev" style="ellipse;whiteSpace=wrap;html=1;" parent="1" vertex="1">
          <mxGeometry x="2320" y="367.5" width="120" height="80" as="geometry" />
        </mxCell>
        <mxCell id="oDda9OyDIdGuTbppPwnk-19" value="vezeteknev" style="ellipse;whiteSpace=wrap;html=1;" parent="1" vertex="1">
          <mxGeometry x="2260" y="604.5" width="100" height="62.5" as="geometry" />
        </mxCell>
        <mxCell id="oDda9OyDIdGuTbppPwnk-20" value="keresztnev" style="ellipse;whiteSpace=wrap;html=1;" parent="1" vertex="1">
          <mxGeometry x="2395.5" y="600" width="103" height="72.5" as="geometry" />
        </mxCell>
        <mxCell id="oDda9OyDIdGuTbppPwnk-21" value="" style="endArrow=none;html=1;rounded=0;entryX=0.5;entryY=1;entryDx=0;entryDy=0;exitX=0.5;exitY=0;exitDx=0;exitDy=0;" parent="1" source="oDda9OyDIdGuTbppPwnk-19" target="oDda9OyDIdGuTbppPwnk-18" edge="1">
          <mxGeometry width="50" height="50" relative="1" as="geometry">
            <mxPoint x="2054.38" y="507.25" as="sourcePoint" />
            <mxPoint x="2104.38" y="457.25" as="targetPoint" />
          </mxGeometry>
        </mxCell>
        <mxCell id="oDda9OyDIdGuTbppPwnk-22" value="" style="endArrow=none;html=1;rounded=0;entryX=0.5;entryY=0;entryDx=0;entryDy=0;exitX=0.5;exitY=1;exitDx=0;exitDy=0;" parent="1" source="oDda9OyDIdGuTbppPwnk-18" target="oDda9OyDIdGuTbppPwnk-20" edge="1">
          <mxGeometry width="50" height="50" relative="1" as="geometry">
            <mxPoint x="2054.38" y="507.25" as="sourcePoint" />
            <mxPoint x="2104.38" y="457.25" as="targetPoint" />
          </mxGeometry>
        </mxCell>
        <mxCell id="oDda9OyDIdGuTbppPwnk-23" value="" style="rounded=0;whiteSpace=wrap;html=1;direction=south;" parent="1" vertex="1">
          <mxGeometry x="2417" y="682.5" width="60" height="120" as="geometry" />
        </mxCell>
        <mxCell id="oDda9OyDIdGuTbppPwnk-24" value="" style="rounded=0;whiteSpace=wrap;html=1;direction=south;" parent="1" vertex="1">
          <mxGeometry x="2280" y="682.5" width="60" height="120" as="geometry" />
        </mxCell>
        <mxCell id="oDda9OyDIdGuTbppPwnk-25" value="" style="endArrow=none;html=1;rounded=0;exitX=0;exitY=0.5;exitDx=0;exitDy=0;entryX=0.5;entryY=1;entryDx=0;entryDy=0;" parent="1" source="oDda9OyDIdGuTbppPwnk-24" target="oDda9OyDIdGuTbppPwnk-19" edge="1">
          <mxGeometry width="50" height="50" relative="1" as="geometry">
            <mxPoint x="2473" y="645.5" as="sourcePoint" />
            <mxPoint x="2313" y="685.5" as="targetPoint" />
          </mxGeometry>
        </mxCell>
        <mxCell id="oDda9OyDIdGuTbppPwnk-26" value="" style="endArrow=none;html=1;rounded=0;exitX=0;exitY=0.5;exitDx=0;exitDy=0;entryX=0.5;entryY=1;entryDx=0;entryDy=0;" parent="1" source="oDda9OyDIdGuTbppPwnk-23" target="oDda9OyDIdGuTbppPwnk-20" edge="1">
          <mxGeometry width="50" height="50" relative="1" as="geometry">
            <mxPoint x="2287" y="605.5" as="sourcePoint" />
            <mxPoint x="2447" y="685.5" as="targetPoint" />
          </mxGeometry>
        </mxCell>
        <mxCell id="oDda9OyDIdGuTbppPwnk-27" value="" style="endArrow=none;html=1;rounded=0;entryX=0.5;entryY=1;entryDx=0;entryDy=0;exitX=1;exitY=0.5;exitDx=0;exitDy=0;" parent="1" source="iWvI_TgvHW9LkMBrBu7h-13" target="iWvI_TgvHW9LkMBrBu7h-4" edge="1">
          <mxGeometry width="50" height="50" relative="1" as="geometry">
            <mxPoint x="2600" y="530" as="sourcePoint" />
            <mxPoint x="2650" y="480" as="targetPoint" />
          </mxGeometry>
        </mxCell>
        <mxCell id="oDda9OyDIdGuTbppPwnk-28" value="" style="endArrow=none;html=1;rounded=0;entryX=0.5;entryY=1;entryDx=0;entryDy=0;exitX=1;exitY=0.5;exitDx=0;exitDy=0;" parent="1" target="oDda9OyDIdGuTbppPwnk-13" edge="1">
          <mxGeometry width="50" height="50" relative="1" as="geometry">
            <mxPoint x="2717.5" y="462.5" as="sourcePoint" />
            <mxPoint x="2650" y="477.5" as="targetPoint" />
          </mxGeometry>
        </mxCell>
        <mxCell id="oDda9OyDIdGuTbppPwnk-29" value="gyakorlat" style="ellipse;whiteSpace=wrap;html=1;" parent="1" vertex="1">
          <mxGeometry x="444" y="610" width="100" height="59.25" as="geometry" />
        </mxCell>
      </root>
    </mxGraphModel>
  </diagram>
</mxfile>
